<?xml version="1.0" standalone="no"?><!DOCTYPE svg PUBLIC "-//W3C//DTD SVG 1.1//EN" "http://www.w3.org/Graphics/SVG/1.1/DTD/svg11.dtd"><svg width="200" height="200" viewBox="0 0 200 200" version="1.1" xmlns="http://www.w3.org/2000/svg" xmlns:xlink="http://www.w3.org/1999/xlink"><defs><style type="text/css"><![CDATA[
@font-face { font-family: ifont; src: url("//at.alicdn.com/t/font_1442373896_4754455.eot?#iefix") format("embedded-opentype"), url("//at.alicdn.com/t/font_1442373896_4754455.woff") format("woff"), url("//at.alicdn.com/t/font_1442373896_4754455.ttf") format("truetype"), url("//at.alicdn.com/t/font_1442373896_4754455.svg#ifont") format("svg"); }

]]></style></defs><g class="transform-group"><g transform="scale(0.1953125, 0.1953125)"><path d="M797.800723 794.935977 217.096968 794.935977c-86.882789 0-152.391782-69.743434-152.391782-162.261571 0-78.328973 46.468334-140.976802 114.814955-157.729348 17.225313-83.867106 90.961688-145.325853 177.721681-145.325853 25.65224 0 50.916647 5.435803 74.061786 15.85306 43.633776-72.323189 120.860648-116.409267 206.311833-116.409267 133.163859 0 241.556545 108.824521 241.556545 242.664785 0 6.828522-0.287549 13.658068-0.837064 20.340257 49.610908 28.808116 80.960916 82.370009 80.960916 140.605342C959.293791 722.166627 886.864178 794.935977 797.800723 794.935977z" fill="#fff"></path></g></g></svg>